<?xml version="1.0" encoding="UTF-8" standalone="no"?>
<svg
   xmlns:dc="http://purl.org/dc/elements/1.1/"
   xmlns:cc="http://creativecommons.org/ns#"
   xmlns:rdf="http://www.w3.org/1999/02/22-rdf-syntax-ns#"
   xmlns:svg="http://www.w3.org/2000/svg"
   xmlns="http://www.w3.org/2000/svg"
   xmlns:sodipodi="http://sodipodi.sourceforge.net/DTD/sodipodi-0.dtd"
   xmlns:inkscape="http://www.inkscape.org/namespaces/inkscape"
   class="icon icon-tabler icon-tabler-settings"
   width="24"
   height="24"
   viewBox="0 0 24 24"
   stroke-width="2"
   stroke="currentColor"
   fill="none"
   stroke-linecap="round"
   stroke-linejoin="round"
   version="1.1"
   id="svg8"
   sodipodi:docname="tabler-icon-settings.svg"
   inkscape:version="1.0.2 (e86c870879, 2021-01-15)">
  <metadata
     id="metadata14">
    <rdf:RDF>
      <cc:Work
         rdf:about="">
        <dc:format>image/svg+xml</dc:format>
        <dc:type
           rdf:resource="http://purl.org/dc/dcmitype/StillImage" />
      </cc:Work>
    </rdf:RDF>
  </metadata>
  <defs
     id="defs12" />
  <sodipodi:namedview
     pagecolor="#ffffff"
     bordercolor="#666666"
     borderopacity="1"
     objecttolerance="10"
     gridtolerance="10"
     guidetolerance="10"
     inkscape:pageopacity="0"
     inkscape:pageshadow="2"
     inkscape:window-width="1920"
     inkscape:window-height="1053"
     id="namedview10"
     showgrid="false"
     inkscape:zoom="37.541667"
     inkscape:cx="12"
     inkscape:cy="12"
     inkscape:window-x="0"
     inkscape:window-y="0"
     inkscape:window-maximized="1"
     inkscape:current-layer="svg8" />
  <path
     stroke="none"
     d="M0 0h24v24H0z"
     fill="none"
     id="path2" />
  <path
     d="m 10.325,4.317 c 0.426,-1.756 2.924,-1.756 3.35,0 a 1.724,1.724 0 0 0 2.573,1.066 c 1.543,-0.94 3.31,0.826 2.37,2.37 a 1.724,1.724 0 0 0 1.065,2.572 c 1.756,0.426 1.756,2.924 0,3.35 a 1.724,1.724 0 0 0 -1.066,2.573 c 0.94,1.543 -0.826,3.31 -2.37,2.37 a 1.724,1.724 0 0 0 -2.572,1.065 c -0.426,1.756 -2.924,1.756 -3.35,0 A 1.724,1.724 0 0 0 7.752,18.617 c -1.543,0.94 -3.31,-0.826 -2.37,-2.37 A 1.724,1.724 0 0 0 4.317,13.675 c -1.756,-0.426 -1.756,-2.924 0,-3.35 A 1.724,1.724 0 0 0 5.383,7.752 c -0.94,-1.543 0.826,-3.31 2.37,-2.37 1,0.608 2.296,0.07 2.572,-1.065 z"
     id="path4"
     style="stroke:#ffeede" />
  <circle
     cx="12"
     cy="12"
     r="3"
     id="circle6"
     style="stroke:#ffeede" />
</svg>
